<svg height="512pt" viewBox="0 0 512 512" width="512pt" xmlns="http://www.w3.org/2000/svg"><path d="m0 176.550781h512v335.449219h-512zm0 0" fill="#28384c"/><path d="m139.042969 335.449219h-83.878907c-6.089843 0-11.027343-4.9375-11.027343-11.027344v-83.871094c0-6.097656 4.9375-11.035156 11.027343-11.035156h83.871094c6.097656 0 11.035156 4.9375 11.035156 11.027344v83.871093c0 6.097657-4.9375 11.035157-11.027343 11.035157zm0 0" fill="#495d72"/><path d="m289.113281 335.449219h-83.871093c-6.101563 0-11.035157-4.9375-11.035157-11.027344v-83.871094c0-6.097656 4.933594-11.035156 11.027344-11.035156h83.867187c6.101563 0 11.035157 4.9375 11.035157 11.027344v83.871093c0 6.097657-4.933594 11.035157-11.023438 11.035157zm0 0" fill="#495d72"/><path d="m139.042969 467.863281h-83.878907c-6.089843 0-11.027343-4.9375-11.027343-11.027343v-75.042969c0-6.101563 4.9375-11.035157 11.027343-11.035157h83.871094c6.097656 0 11.035156 4.933594 11.035156 11.027344v75.042969c0 6.097656-4.9375 11.035156-11.027343 11.035156zm0 0" fill="#495d72"/><path d="m289.113281 467.863281h-83.871093c-6.101563 0-11.035157-4.9375-11.035157-11.027343v-75.042969c0-6.101563 4.933594-11.035157 11.027344-11.035157h83.867187c6.101563 0 11.035157 4.933594 11.035157 11.027344v75.042969c0 6.097656-4.933594 11.035156-11.023438 11.035156zm0 0" fill="#495d72"/><path d="m456.835938 467.863281h-101.535157c-6.089843 0-11.023437-4.9375-11.023437-11.027343v-216.292969c0-6.089844 4.933594-11.027344 11.023437-11.027344h101.527344c6.097656 0 11.035156 4.9375 11.035156 11.027344v216.285156c0 6.097656-4.9375 11.035156-11.027343 11.035156zm0 0" fill="#25ae88"/><g fill="#fff"><path d="m432.550781 344.277344h-52.964843c-4.871094 0-8.828126-3.957032-8.828126-8.828125 0-4.875 3.957032-8.828125 8.828126-8.828125h52.964843c4.875 0 8.828125 3.953125 8.828125 8.828125 0 4.871093-3.953125 8.828125-8.828125 8.828125zm0 0"/><path d="m114.757812 291.308594h-35.308593c-4.875 0-8.828125-3.953125-8.828125-8.824219 0-4.875 3.953125-8.828125 8.828125-8.828125h35.308593c4.875 0 8.828126 3.953125 8.828126 8.828125 0 4.871094-3.953126 8.824219-8.828126 8.824219zm0 0"/><path d="m114.757812 432.550781h-35.308593c-4.875 0-8.828125-3.953125-8.828125-8.828125 0-4.871094 3.953125-8.824218 8.828125-8.824218h35.308593c4.875 0 8.828126 3.953124 8.828126 8.824218 0 4.875-3.953126 8.828125-8.828126 8.828125zm0 0"/><path d="m432.550781 379.585938h-52.964843c-4.871094 0-8.828126-3.953126-8.828126-8.828126 0-4.871093 3.957032-8.828124 8.828126-8.828124h52.964843c4.875 0 8.828125 3.957031 8.828125 8.828124 0 4.875-3.953125 8.828126-8.828125 8.828126zm0 0"/><path d="m97.101562 308.964844c-4.871093 0-8.824218-3.953125-8.824218-8.828125v-35.308594c0-4.875 3.953125-8.828125 8.824218-8.828125 4.875 0 8.828126 3.953125 8.828126 8.828125v35.308594c0 4.875-3.953126 8.828125-8.828126 8.828125zm0 0"/><path d="m229.515625 308.964844c-2.257813 0-4.519531-.863282-6.238281-2.585938-3.453125-3.453125-3.453125-9.03125 0-12.480468l35.308594-35.3125c3.453124-3.449219 9.03125-3.449219 12.484374 0 3.449219 3.453124 3.449219 9.03125 0 12.484374l-35.3125 35.308594c-1.722656 1.722656-3.980468 2.585938-6.242187 2.585938zm0 0"/><path d="m264.828125 308.964844c-2.261719 0-4.519531-.863282-6.242187-2.585938l-35.308594-35.308594c-3.453125-3.453124-3.453125-9.03125 0-12.484374 3.449218-3.449219 9.03125-3.449219 12.480468 0l35.3125 35.3125c3.449219 3.449218 3.449219 9.027343 0 12.480468-1.722656 1.722656-3.984374 2.585938-6.242187 2.585938zm0 0"/><path d="m238.335938 441.378906c-1.675782 0-3.382813-.476562-4.890626-1.484375-4.050781-2.699219-5.144531-8.179687-2.445312-12.242187l17.65625-26.492188c2.699219-4.050781 8.183594-5.164062 12.242188-2.445312 4.054687 2.703125 5.148437 8.183594 2.445312 12.246094l-17.65625 26.488281c-1.691406 2.554687-4.5 3.929687-7.351562 3.929687zm0 0"/></g><path d="m0 0h512v185.378906h-512zm0 0" fill="#e4c05c"/><path d="m273.65625 97.101562h-52.964844c-4.875 0-8.828125-3.953124-8.828125-8.824218v-44.140625c0-4.871094 3.953125-8.828125 8.828125-8.828125h52.964844c4.871094 0 8.828125 3.957031 8.828125 8.828125 0 4.875-3.957031 8.828125-8.828125 8.828125h-44.140625v26.484375h44.140625c4.871094 0 8.828125 3.953125 8.828125 8.828125 0 4.871094-3.957031 8.824218-8.828125 8.824218zm0 0" fill="#a17f37"/><path d="m273.65625 141.242188h-52.964844c-4.875 0-8.828125-3.957032-8.828125-8.828126v-44.136718c0-4.875 3.953125-8.828125 8.828125-8.828125h52.964844c4.871094 0 8.828125 3.953125 8.828125 8.828125 0 4.871094-3.957031 8.824218-8.828125 8.824218h-44.140625v26.484376h44.140625c4.871094 0 8.828125 3.953124 8.828125 8.828124 0 4.871094-3.957031 8.828126-8.828125 8.828126zm0 0" fill="#a17f37"/><path d="m414.898438 141.242188c-4.875 0-8.828126-3.957032-8.828126-8.828126v-88.277343c0-4.871094 3.953126-8.828125 8.828126-8.828125 4.871093 0 8.824218 3.957031 8.824218 8.828125v88.277343c0 4.871094-3.953125 8.828126-8.824218 8.828126zm0 0" fill="#a17f37"/><path d="m441.378906 105.929688h-26.480468c-4.875 0-8.828126-3.953126-8.828126-8.828126v-52.964843c0-4.871094 3.953126-8.828125 8.828126-8.828125h26.480468c19.472656 0 35.3125 15.839844 35.3125 35.3125s-15.839844 35.308594-35.3125 35.308594zm-17.65625-17.652344h17.65625c9.738282 0 17.65625-7.917969 17.65625-17.65625 0-9.738282-7.917968-17.65625-17.65625-17.65625h-17.65625zm0 0" fill="#a17f37"/><path d="m467.871094 141.242188c-2.683594 0-5.332032-1.21875-7.070313-3.53125l-26.484375-35.3125c-2.929687-3.898438-2.136718-9.433594 1.765625-12.355469 3.910157-2.933594 9.4375-2.121094 12.359375 1.765625l26.484375 35.308594c2.929688 3.902343 2.132813 9.4375-1.765625 12.359374-1.589844 1.191407-3.453125 1.765626-5.289062 1.765626zm0 0" fill="#a17f37"/><path d="m317.792969 141.242188c-4.871094 0-8.828125-3.957032-8.828125-8.828126v-88.277343c0-4.871094 3.957031-8.828125 8.828125-8.828125 4.871093 0 8.828125 3.957031 8.828125 8.828125v88.277343c0 4.871094-3.957032 8.828126-8.828125 8.828126zm0 0" fill="#a17f37"/><path d="m344.277344 105.929688h-26.484375c-4.871094 0-8.828125-3.953126-8.828125-8.828126v-52.964843c0-4.871094 3.957031-8.828125 8.828125-8.828125h26.484375c19.472656 0 35.308594 15.839844 35.308594 35.3125s-15.835938 35.308594-35.308594 35.308594zm-17.65625-17.652344h17.65625c9.734375 0 17.652344-7.917969 17.652344-17.65625 0-9.738282-7.917969-17.65625-17.652344-17.65625h-17.65625zm0 0" fill="#a17f37"/><path d="m370.765625 141.242188c-2.683594 0-5.328125-1.21875-7.070313-3.53125l-26.480468-35.3125c-2.933594-3.898438-2.136719-9.433594 1.765625-12.355469 3.910156-2.933594 9.433593-2.121094 12.359375 1.765625l26.480468 35.308594c2.929688 3.902343 2.136719 9.4375-1.765624 12.359374-1.589844 1.191407-3.449219 1.765626-5.289063 1.765626zm0 0" fill="#a17f37"/></svg>